<?xml version="1.0" encoding="UTF-8"?><svg id="Calque_1" xmlns="http://www.w3.org/2000/svg" viewBox="0 0 425.73 625.55"><polygon points="278.81 0 278.81 467.69 346.23 625.55 425.73 625.55 318.78 468.46 318.78 0 278.81 0" fill="#e4cd54" stroke-width="0"/><polygon points="232.85 0 192.88 0 192.88 468.11 192.87 468.21 170.47 625.55 255.26 625.55 255.23 625.34 232.85 468.11 232.85 468 232.85 0" fill="#d05545" stroke-width="0"/><polygon points="92.32 595.54 146.92 467.69 146.92 0 106.95 0 106.95 468.46 106.69 468.84 0 625.55 79.5 625.55 92.32 595.54" fill="#9dbcab" stroke-width="0"/><polygon points="235.85 0 235.85 467.89 258.29 625.55 342.97 625.55 275.81 468.31 275.81 0 235.85 0" fill="#d8882f" stroke-width="0"/><polygon points="170.61 603.24 189.88 467.89 189.88 0 149.92 0 149.92 468.31 149.8 468.59 82.76 625.55 167.44 625.55 170.61 603.24" fill="#d4969e" stroke-width="0"/></svg>