<?xml version="1.0" encoding="utf-8"?>
<!-- Generator: Adobe Illustrator 28.0.0, SVG Export Plug-In . SVG Version: 6.00 Build 0)  -->
<svg version="1.1" id="Calque_1" xmlns="http://www.w3.org/2000/svg" xmlns:xlink="http://www.w3.org/1999/xlink" x="0px" y="0px"
	 viewBox="0 0 328.6 328.6" enable-background="new 0 0 328.6 328.6" xml:space="preserve">
<g>
	<path fill="#D15646" d="M320.6,164.3c0,86.4-70,156.4-156.4,156.4c-86.4,0-156.4-70-156.4-156.4c0-86.4,70-156.4,156.4-156.4
		C250.6,7.9,320.6,77.9,320.6,164.3z"/>
	<g>
		<path opacity="0.3" fill="#FFFFFF" d="M163.6,305.9c-19.1,0-37.7-3.7-55.1-11.1c-16.9-7.1-32-17.3-45-30.3
			c-13-13-23.2-28.1-30.3-45C25.8,202,22,183.4,22,164.3c0-19.1,3.7-37.7,11.1-55.1c7.1-16.9,17.3-32,30.3-45
			c13-13,28.1-23.2,45-30.3c17.5-7.4,36-11.1,55.1-11.1c19.1,0,37.7,3.7,55.1,11.1c16.9,7.1,32,17.3,45,30.3
			c13,13,23.2,28.1,30.3,45c7.4,17.5,11.1,36,11.1,55.1c0,19.1-3.7,37.7-11.1,55.1c-7.1,16.9-17.3,32-30.3,45
			c-13,13-28.1,23.2-45,30.3C201.3,302.2,182.8,305.9,163.6,305.9z M163.6,26.8c-18.6,0-36.6,3.6-53.5,10.8
			C93.8,44.5,79,54.5,66.4,67.1C53.8,79.7,43.9,94.4,37,110.8c-7.2,16.9-10.8,35-10.8,53.5c0,18.6,3.6,36.6,10.8,53.5
			c6.9,16.4,16.8,31.1,29.5,43.7c12.6,12.6,27.3,22.5,43.7,29.5c16.9,7.2,35,10.8,53.5,10.8c18.6,0,36.6-3.6,53.5-10.8
			c16.4-6.9,31.1-16.8,43.7-29.5c12.6-12.6,22.5-27.3,29.5-43.7c7.2-16.9,10.8-35,10.8-53.5c0-18.6-3.6-36.6-10.8-53.5
			c-6.9-16.4-16.8-31.1-29.5-43.7c-12.6-12.6-27.3-22.5-43.7-29.5C200.2,30.4,182.2,26.8,163.6,26.8z"/>
		<path opacity="0.3" fill="#FFFFFF" d="M163.6,295.8c-17.7,0-35-3.5-51.2-10.3c-15.7-6.6-29.7-16.1-41.8-28.2s-21.6-26.1-28.2-41.8
			c-6.9-16.2-10.3-33.4-10.3-51.2c0-17.7,3.5-35,10.3-51.2c6.6-15.7,16.1-29.7,28.2-41.8c12.1-12.1,26.1-21.6,41.8-28.2
			c16.2-6.9,33.4-10.3,51.2-10.3c17.7,0,35,3.5,51.2,10.3c15.7,6.6,29.7,16.1,41.8,28.2s21.6,26.1,28.2,41.8
			c6.9,16.2,10.3,33.4,10.3,51.2c0,17.7-3.5,35-10.3,51.2c-6.6,15.7-16.1,29.7-28.2,41.8c-12.1,12.1-26.1,21.6-41.8,28.2
			C198.6,292.3,181.4,295.8,163.6,295.8z M163.6,37c-17.2,0-33.9,3.4-49.6,10c-15.2,6.4-28.8,15.6-40.5,27.3
			C61.9,86,52.7,99.6,46.3,114.7c-6.6,15.7-10,32.4-10,49.6c0,17.2,3.4,33.9,10,49.6c6.4,15.2,15.6,28.8,27.3,40.5
			c11.7,11.7,25.3,20.9,40.5,27.3c15.7,6.6,32.4,10,49.6,10c17.2,0,33.9-3.4,49.6-10c15.2-6.4,28.8-15.6,40.5-27.3
			c11.7-11.7,20.9-25.3,27.3-40.5c6.6-15.7,10-32.4,10-49.6c0-17.2-3.4-33.9-10-49.6c-6.4-15.2-15.6-28.8-27.3-40.5
			C242,62.6,228.4,53.4,213.2,47C197.5,40.3,180.8,37,163.6,37z"/>
		<path opacity="0.3" fill="#FFFFFF" d="M163.6,286c-16.4,0-32.4-3.2-47.4-9.6c-14.5-6.1-27.5-14.9-38.7-26.1
			c-11.2-11.2-20-24.2-26.1-38.7c-6.3-15-9.6-31-9.6-47.4c0-16.4,3.2-32.4,9.6-47.4c6.1-14.5,14.9-27.5,26.1-38.7
			c11.2-11.2,24.2-20,38.7-26.1c15-6.3,31-9.6,47.4-9.6c16.4,0,32.4,3.2,47.4,9.6c14.5,6.1,27.5,14.9,38.7,26.1
			c11.2,11.2,20,24.2,26.1,38.7c6.3,15,9.6,31,9.6,47.4s-3.2,32.4-9.6,47.4c-6.1,14.5-14.9,27.5-26.1,38.7
			c-11.2,11.2-24.2,20-38.7,26.1C196,282.8,180.1,286,163.6,286z M163.6,46.7c-15.9,0-31.3,3.1-45.8,9.2
			c-14,5.9-26.6,14.4-37.4,25.2c-10.8,10.8-19.3,23.4-25.2,37.4C49.1,133,46,148.4,46,164.3c0,15.9,3.1,31.3,9.2,45.8
			c5.9,14,14.4,26.6,25.2,37.4c10.8,10.8,23.4,19.3,37.4,25.2c14.5,6.1,29.9,9.2,45.8,9.2c15.9,0,31.3-3.1,45.8-9.2
			c14-5.9,26.6-14.4,37.4-25.2c10.8-10.8,19.3-23.4,25.2-37.4c6.1-14.5,9.2-29.9,9.2-45.8c0-15.9-3.1-31.3-9.2-45.8
			c-5.9-14-14.4-26.6-25.2-37.4c-10.8-10.8-23.4-19.3-37.4-25.2C194.9,49.8,179.5,46.7,163.6,46.7z"/>
		<path opacity="0.3" fill="#FFFFFF" d="M163.6,275.8c-15.1,0-29.7-2.9-43.4-8.8c-13.3-5.6-25.2-13.7-35.4-23.9
			c-10.2-10.2-18.3-22.2-23.9-35.4c-5.8-13.7-8.8-28.4-8.8-43.4c0-15.1,2.9-29.7,8.8-43.4c5.6-13.3,13.7-25.2,23.9-35.4
			s22.2-18.3,35.4-23.9c13.7-5.8,28.4-8.8,43.4-8.8c15.1,0,29.7,2.9,43.4,8.8c13.3,5.6,25.2,13.7,35.4,23.9
			c10.2,10.2,18.3,22.2,23.9,35.4c5.8,13.7,8.8,28.4,8.8,43.4c0,15.1-2.9,29.7-8.8,43.4c-5.6,13.3-13.7,25.2-23.9,35.4
			c-10.2,10.2-22.2,18.3-35.4,23.9C193.3,272.9,178.7,275.8,163.6,275.8z M163.6,56.9c-14.5,0-28.6,2.8-41.8,8.4
			c-12.8,5.4-24.3,13.2-34.1,23c-9.9,9.9-17.6,21.3-23,34.1c-5.6,13.2-8.4,27.3-8.4,41.8c0,14.5,2.8,28.6,8.4,41.8
			c5.4,12.8,13.2,24.3,23,34.1c9.9,9.9,21.3,17.6,34.1,23c13.2,5.6,27.3,8.4,41.8,8.4c14.5,0,28.6-2.8,41.8-8.4
			c12.8-5.4,24.3-13.2,34.1-23c9.9-9.9,17.6-21.3,23-34.1c5.6-13.2,8.4-27.3,8.4-41.8c0-14.5-2.8-28.6-8.4-41.8
			c-5.4-12.8-13.2-24.3-23-34.1c-9.9-9.9-21.3-17.6-34.1-23C192.2,59.8,178.1,56.9,163.6,56.9z"/>
		<path opacity="0.3" fill="#FFFFFF" d="M163.6,265.8c-13.7,0-27-2.7-39.5-8c-12.1-5.1-22.9-12.4-32.3-21.8
			c-9.3-9.3-16.6-20.2-21.8-32.3c-5.3-12.5-8-25.8-8-39.5c0-13.7,2.7-27,8-39.5c5.1-12.1,12.4-22.9,21.8-32.3
			c9.3-9.3,20.2-16.6,32.3-21.8c12.5-5.3,25.8-8,39.5-8c13.7,0,27,2.7,39.5,8c12.1,5.1,22.9,12.4,32.3,21.8
			c9.3,9.3,16.6,20.2,21.8,32.3c5.3,12.5,8,25.8,8,39.5c0,13.7-2.7,27-8,39.5c-5.1,12.1-12.4,22.9-21.8,32.3
			c-9.3,9.3-20.2,16.6-32.3,21.8C190.6,263.1,177.3,265.8,163.6,265.8z M163.6,66.9c-13.1,0-25.9,2.6-37.9,7.7
			c-11.6,4.9-22,11.9-31,20.9c-8.9,8.9-16,19.4-20.9,31c-5.1,12-7.7,24.8-7.7,37.9c0,13.1,2.6,25.9,7.7,37.9
			c4.9,11.6,11.9,22,20.9,31c8.9,8.9,19.4,16,31,20.9c12,5.1,24.8,7.7,37.9,7.7c13.1,0,25.9-2.6,37.9-7.7c11.6-4.9,22-11.9,31-20.9
			c8.9-8.9,16-19.4,20.9-31c5.1-12,7.7-24.8,7.7-37.9c0-13.1-2.6-25.9-7.7-37.9c-4.9-11.6-11.9-22-20.9-31c-8.9-8.9-19.4-16-31-20.9
			C189.5,69.5,176.8,66.9,163.6,66.9z"/>
		<path opacity="0.3" fill="#FFFFFF" d="M163.6,253.8c-12.1,0-23.8-2.4-34.9-7c-10.7-4.5-20.2-11-28.5-19.2
			c-8.2-8.2-14.7-17.8-19.2-28.5c-4.7-11-7-22.8-7-34.9c0-12.1,2.4-23.8,7-34.9c4.5-10.7,11-20.2,19.2-28.5s17.8-14.7,28.5-19.2
			c11-4.7,22.8-7,34.9-7c12.1,0,23.8,2.4,34.9,7c10.7,4.5,20.2,11,28.5,19.2c8.2,8.2,14.7,17.8,19.2,28.5c4.7,11,7,22.8,7,34.9
			c0,12.1-2.4,23.8-7,34.9c-4.5,10.7-11,20.2-19.2,28.5c-8.2,8.2-17.8,14.7-28.5,19.2C187.5,251.5,175.7,253.8,163.6,253.8z
			 M163.6,78.7c-11.6,0-22.8,2.3-33.3,6.7c-10.2,4.3-19.4,10.5-27.2,18.3c-7.9,7.9-14,17-18.4,27.2c-4.5,10.6-6.7,21.8-6.7,33.3
			c0,11.6,2.3,22.8,6.7,33.3c4.3,10.2,10.5,19.4,18.4,27.2c7.9,7.9,17,14,27.2,18.4c10.6,4.5,21.8,6.7,33.3,6.7
			c11.6,0,22.8-2.3,33.3-6.7c10.2-4.3,19.4-10.5,27.2-18.3s14-17,18.4-27.2c4.5-10.6,6.7-21.8,6.7-33.3c0-11.6-2.3-22.8-6.7-33.3
			c-4.3-10.2-10.5-19.4-18.4-27.2s-17-14-27.2-18.3C186.4,80.9,175.2,78.7,163.6,78.7z"/>
		<path opacity="0.3" fill="#FFFFFF" d="M163.6,242.8c-10.6,0-20.9-2.1-30.6-6.2c-9.4-4-17.8-9.6-25-16.8
			c-7.2-7.2-12.9-15.6-16.8-25c-4.1-9.7-6.2-20-6.2-30.6c0-10.6,2.1-20.9,6.2-30.6c4-9.4,9.6-17.8,16.8-25
			c7.2-7.2,15.6-12.9,25-16.8c9.7-4.1,20-6.2,30.6-6.2c10.6,0,20.9,2.1,30.6,6.2c9.4,4,17.8,9.6,25,16.8c7.2,7.2,12.9,15.6,16.8,25
			c4.1,9.7,6.2,20,6.2,30.6c0,10.6-2.1,20.9-6.2,30.6c-4,9.4-9.6,17.8-16.8,25c-7.2,7.2-15.6,12.9-25,16.8
			C184.5,240.8,174.2,242.8,163.6,242.8z M163.6,89.5c-10.1,0-19.9,2-29.1,5.9c-8.9,3.8-16.9,9.2-23.8,16
			c-6.9,6.9-12.3,14.9-16,23.8c-3.9,9.2-5.9,19-5.9,29.1c0,10.1,2,19.9,5.9,29.1c3.8,8.9,9.2,16.9,16,23.8
			c6.9,6.9,14.9,12.3,23.8,16c9.2,3.9,19,5.9,29.1,5.9c10.1,0,19.9-2,29.1-5.9c8.9-3.8,16.9-9.2,23.8-16c6.9-6.9,12.3-14.9,16-23.8
			c3.9-9.2,5.9-19,5.9-29.1c0-10.1-2-19.9-5.9-29.1c-3.8-8.9-9.2-16.9-16-23.8c-6.9-6.9-14.9-12.3-23.8-16
			C183.5,91.4,173.7,89.5,163.6,89.5z"/>
		<path opacity="0.3" fill="#FFFFFF" d="M163.6,231c-17.8,0-34.5-6.9-47.1-19.5C103.9,198.8,97,182.1,97,164.3
			c0-17.8,6.9-34.5,19.5-47.1c12.6-12.6,29.3-19.5,47.1-19.5c17.8,0,34.5,6.9,47.1,19.5c12.6,12.6,19.5,29.3,19.5,47.1
			c0,17.8-6.9,34.5-19.5,47.1C198.2,224,181.4,231,163.6,231z M163.6,101.1c-16.9,0-32.8,6.6-44.7,18.5
			c-11.9,11.9-18.5,27.8-18.5,44.7c0,16.9,6.6,32.8,18.5,44.7c11.9,11.9,27.8,18.5,44.7,18.5c16.9,0,32.8-6.6,44.7-18.5
			c11.9-11.9,18.5-27.8,18.5-44.7c0-16.9-6.6-32.8-18.5-44.7C196.4,107.6,180.5,101.1,163.6,101.1z"/>
		<path fill="#F1E7D3" d="M163.6,109.1c-30.4,0-55.1,24.7-55.1,55.1c0,30.4,24.7,55.1,55.1,55.1c30.4,0,55.1-24.7,55.1-55.1
			C218.7,133.8,194.1,109.1,163.6,109.1z M163.6,178.9c-8.1,0-14.7-6.6-14.7-14.7c0-8.1,6.6-14.7,14.7-14.7
			c8.1,0,14.7,6.6,14.7,14.7C178.3,172.3,171.8,178.9,163.6,178.9z"/>
		<path fill="#FFFFFF" d="M163.6,212.9c-13,0-25.2-5.1-34.4-14.2c-9.2-9.2-14.2-21.4-14.2-34.4c0-13,5.1-25.2,14.2-34.4
			c9.2-9.2,21.4-14.2,34.4-14.2c13,0,25.2,5.1,34.4,14.2c9.2,9.2,14.2,21.4,14.2,34.4c0,13-5.1,25.2-14.2,34.4
			C188.8,207.8,176.6,212.9,163.6,212.9z M163.6,116.6c-12.7,0-24.7,5-33.7,14c-9,9-14,21-14,33.7c0,12.7,5,24.7,14,33.7
			c9,9,21,14,33.7,14c12.7,0,24.7-5,33.7-14c9-9,14-21,14-33.7c0-12.7-5-24.7-14-33.7C188.3,121.5,176.4,116.6,163.6,116.6z"/>
	</g>
</g>
</svg>
